<svg id="Capa_1" enable-background="new 0 0 512 512" height="512" viewBox="0 0 512 512" width="512" xmlns="http://www.w3.org/2000/svg"><g><g><path d="m146.319 386.889-115.561 115.56c-2.93 2.93-6.77 4.4-10.61 4.4-3.83 0-7.67-1.47-10.6-4.4-5.86-5.85-5.86-15.35 0-21.21l115.561-115.56c5.86-5.86 15.36-5.86 21.21 0 5.86 5.85 5.86 15.35 0 21.21z" fill="#334973"/></g><path d="m146.319 386.889-115.561 115.56c-2.93 2.93-6.77 4.4-10.61 4.4-3.83 0-7.67-1.47-10.6-4.4l136.771-136.769c5.86 5.849 5.86 15.349 0 21.209z" fill="#1f3259"/><g><path d="m507.612 215.62-27.09 27.11c-28.87 28.85-73.751 35.19-109.381 15.53l-75.791 75.79c-7.24 7.21-19.46 5.28-24.03-3.91-6.51-13.04-15.09-24.93-25.49-35.33-5.31-5.31-10-10.08-14.26-14.38-19.45-19.68-29.91-29.86-49.711-39.75-9.15-4.55-11.15-16.79-3.91-24.03l75.791-75.79c-19.66-35.6-13.33-80.5 15.53-109.369l27.11-27.1c5.86-5.86 15.35-5.85 21.21 0l95.011 95.01 95.011 95.009c5.851 5.86 5.851 15.36 0 21.21z" fill="#ff4d4d"/></g><path d="m507.612 215.62-27.09 27.11c-28.87 28.85-73.751 35.19-109.381 15.53l-75.791 75.79c-7.24 7.21-19.46 5.28-24.03-3.91-6.51-13.04-15.09-24.93-25.49-35.33-5.31-5.31-10-10.08-14.26-14.38l181.032-181.029 95.011 95.009c5.85 5.86 5.85 15.36-.001 21.21z" fill="#cd0000"/><g><path d="m267.04 507.609c-5.85 5.85-15.35 5.86-21.21 0l-120.721-120.72-120.721-120.719c-5.85-5.86-5.85-15.35 0-21.21 50.41-50.41 127.111-62.92 190.862-31.12 15.95 7.96 30.47 18.43 43.16 31.12 5.21 5.21 9.98 9.9 14.38 14.25 20.8 20.58 33.43 33.62 45.37 57.53 30.241 60.529 21.641 138.069-31.12 190.869z" fill="#ff8066"/></g><path d="m267.04 507.609c-5.85 5.85-15.35 5.86-21.21 0l-120.721-120.72 127.681-127.679c20.8 20.58 33.43 33.62 45.37 57.53 30.241 60.529 21.641 138.069-31.12 190.869z" fill="#ff4d4d"/></g></svg>